<?xml version="1.0" encoding="UTF-8"?>
<svg xmlns="http://www.w3.org/2000/svg" width="3.625in" height="2.125in" viewBox="0 0 1088 638">
  <title>Tresor Couture — business card (back)</title>
  <defs>
    <linearGradient id="gold" x1="0" y1="0" x2="1" y2="1">
      <stop offset="0%" stop-color="#D8B97A"/>
      <stop offset="50%" stop-color="#B8893A"/>
      <stop offset="100%" stop-color="#8E6520"/>
    </linearGradient>
  </defs>
  <rect width="1088" height="638" fill="#F5ECDC"/>

  <!-- left: mini mark -->
  <g transform="translate(120 200) scale(2.6)" fill="url(#gold)">
    <path d="M 12 14 L 12 12 Q 12 11 13 11 L 38 11 Q 39 11 39 12 L 39 14 L 36 16 L 17 16 L 14 14 Z"/>
    <path d="M 23 16 L 23 48 L 21 50 L 21 52 L 30 52 L 30 50 L 28 48 L 28 16 Z"/>
  </g>
  <g transform="translate(120 200) scale(2.6)" fill="none" stroke="url(#gold)" stroke-width="3" stroke-linecap="round">
    <path d="M 51 22 C 44 22 40 28 40 34 C 40 40 44 46 51 46"/>
  </g>

  <!-- vertical divider -->
  <line x1="380" y1="160" x2="380" y2="478" stroke="url(#gold)" stroke-width="0.8"/>

  <!-- right: contact block -->
  <g font-family="'Inter', sans-serif" fill="#2A1F12">
    <text x="440" y="220" font-size="34" font-weight="600">{NAME}</text>
    <text x="440" y="262" font-size="20" font-weight="400" fill="#8E6520" letter-spacing="3">{TITLE}</text>

    <line x1="440" y1="296" x2="540" y2="296" stroke="url(#gold)" stroke-width="0.8"/>

    <text x="440" y="346" font-size="20" font-weight="400">{EMAIL}</text>
    <text x="440" y="386" font-size="20" font-weight="400">{PHONE}</text>
    <text x="440" y="426" font-size="20" font-weight="500" fill="#8E6520">tresorcouture.in</text>
    <text x="440" y="466" font-size="17" font-weight="400" fill="#46382A">Atelier · {ADDRESS}</text>
  </g>
</svg>